<svg width="54" height="68" viewBox="0 0 54 68" fill="none" xmlns="http://www.w3.org/2000/svg">
<path d="M2.736 64C2.472 64 2.25 63.91 2.07 63.73C1.89 63.55 1.8 63.328 1.8 63.064V50.878C1.8 50.602 1.89 50.38 2.07 50.212C2.25 50.032 2.472 49.942 2.736 49.942C3.012 49.942 3.234 50.032 3.402 50.212C3.582 50.38 3.672 50.602 3.672 50.878V56.044H12.024V50.878C12.024 50.602 12.114 50.38 12.294 50.212C12.474 50.032 12.696 49.942 12.96 49.942C13.236 49.942 13.458 50.032 13.626 50.212C13.794 50.38 13.878 50.602 13.878 50.878V63.064C13.878 63.328 13.794 63.55 13.626 63.73C13.458 63.91 13.236 64 12.96 64C12.696 64 12.474 63.91 12.294 63.73C12.114 63.55 12.024 63.328 12.024 63.064V57.7H3.672V63.064C3.672 63.328 3.582 63.55 3.402 63.73C3.234 63.91 3.012 64 2.736 64ZM21.4037 64.072C20.5277 64.072 19.7417 63.856 19.0457 63.424C18.3497 62.98 17.7977 62.386 17.3897 61.642C16.9937 60.886 16.7957 60.034 16.7957 59.086C16.7957 58.138 17.0117 57.286 17.4437 56.53C17.8877 55.774 18.4817 55.18 19.2257 54.748C19.9817 54.304 20.8277 54.082 21.7637 54.082C22.6997 54.082 23.5397 54.304 24.2837 54.748C25.0277 55.18 25.6157 55.774 26.0477 56.53C26.4917 57.286 26.7137 58.138 26.7137 59.086H26.0117C26.0117 60.034 25.8077 60.886 25.3997 61.642C25.0037 62.386 24.4577 62.98 23.7617 63.424C23.0657 63.856 22.2797 64.072 21.4037 64.072ZM21.7637 62.452C22.3757 62.452 22.9217 62.308 23.4017 62.02C23.8817 61.72 24.2597 61.318 24.5357 60.814C24.8117 60.298 24.9497 59.722 24.9497 59.086C24.9497 58.438 24.8117 57.862 24.5357 57.358C24.2597 56.842 23.8817 56.44 23.4017 56.152C22.9217 55.852 22.3757 55.702 21.7637 55.702C21.1637 55.702 20.6177 55.852 20.1257 56.152C19.6457 56.44 19.2617 56.842 18.9737 57.358C18.6977 57.862 18.5597 58.438 18.5597 59.086C18.5597 59.722 18.6977 60.298 18.9737 60.814C19.2617 61.318 19.6457 61.72 20.1257 62.02C20.6177 62.308 21.1637 62.452 21.7637 62.452ZM25.7957 64.018C25.5317 64.018 25.3097 63.934 25.1297 63.766C24.9617 63.586 24.8777 63.364 24.8777 63.1V60.346L25.2197 58.438L26.7137 59.086V63.1C26.7137 63.364 26.6237 63.586 26.4437 63.766C26.2757 63.934 26.0597 64.018 25.7957 64.018ZM34.3962 64.072C33.4602 64.072 32.6202 63.856 31.8762 63.424C31.1322 62.98 30.5442 62.38 30.1122 61.624C29.6802 60.868 29.4582 60.016 29.4462 59.068V50.86C29.4462 50.584 29.5302 50.362 29.6982 50.194C29.8782 50.026 30.1002 49.942 30.3642 49.942C30.6402 49.942 30.8622 50.026 31.0302 50.194C31.1982 50.362 31.2822 50.584 31.2822 50.86V55.72C31.7022 55.216 32.2062 54.82 32.7942 54.532C33.3942 54.232 34.0482 54.082 34.7562 54.082C35.6322 54.082 36.4182 54.304 37.1142 54.748C37.8102 55.18 38.3562 55.774 38.7522 56.53C39.1602 57.274 39.3642 58.12 39.3642 59.068C39.3642 60.016 39.1422 60.868 38.6982 61.624C38.2662 62.38 37.6782 62.98 36.9342 63.424C36.1902 63.856 35.3442 64.072 34.3962 64.072ZM34.3962 62.452C35.0082 62.452 35.5542 62.308 36.0342 62.02C36.5142 61.72 36.8922 61.312 37.1682 60.796C37.4562 60.28 37.6002 59.704 37.6002 59.068C37.6002 58.42 37.4562 57.844 37.1682 57.34C36.8922 56.836 36.5142 56.44 36.0342 56.152C35.5542 55.852 35.0082 55.702 34.3962 55.702C33.7962 55.702 33.2502 55.852 32.7582 56.152C32.2782 56.44 31.9002 56.836 31.6242 57.34C31.3482 57.844 31.2102 58.42 31.2102 59.068C31.2102 59.704 31.3482 60.28 31.6242 60.796C31.9002 61.312 32.2782 61.72 32.7582 62.02C33.2502 62.308 33.7962 62.452 34.3962 62.452ZM43.2004 64C42.9364 64 42.7144 63.916 42.5344 63.748C42.3664 63.568 42.2824 63.346 42.2824 63.082V55.072C42.2824 54.796 42.3664 54.574 42.5344 54.406C42.7144 54.238 42.9364 54.154 43.2004 54.154C43.4764 54.154 43.6984 54.238 43.8664 54.406C44.0344 54.574 44.1184 54.796 44.1184 55.072V63.082C44.1184 63.346 44.0344 63.568 43.8664 63.748C43.6984 63.916 43.4764 64 43.2004 64ZM43.2004 52.552C42.8764 52.552 42.5944 52.438 42.3544 52.21C42.1264 51.97 42.0124 51.688 42.0124 51.364C42.0124 51.04 42.1264 50.764 42.3544 50.536C42.5944 50.296 42.8764 50.176 43.2004 50.176C43.5244 50.176 43.8004 50.296 44.0284 50.536C44.2684 50.764 44.3884 51.04 44.3884 51.364C44.3884 51.688 44.2684 51.97 44.0284 52.21C43.8004 52.438 43.5244 52.552 43.2004 52.552ZM51.1161 64C50.5161 64 49.9761 63.85 49.4961 63.55C49.0161 63.238 48.6381 62.818 48.3621 62.29C48.0861 61.762 47.9481 61.168 47.9481 60.508V51.922C47.9481 51.658 48.0321 51.442 48.2001 51.274C48.3681 51.106 48.5841 51.022 48.8481 51.022C49.1121 51.022 49.3281 51.106 49.4961 51.274C49.6641 51.442 49.7481 51.658 49.7481 51.922V60.508C49.7481 60.988 49.8801 61.39 50.1441 61.714C50.4081 62.038 50.7321 62.2 51.1161 62.2H51.7281C51.9441 62.2 52.1241 62.284 52.2681 62.452C52.4241 62.62 52.5021 62.836 52.5021 63.1C52.5021 63.364 52.4001 63.58 52.1961 63.748C52.0041 63.916 51.7521 64 51.4401 64H51.1161ZM47.1201 56.062C46.8681 56.062 46.6641 55.99 46.5081 55.846C46.3521 55.702 46.2741 55.522 46.2741 55.306C46.2741 55.066 46.3521 54.874 46.5081 54.73C46.6641 54.586 46.8681 54.514 47.1201 54.514H51.2781C51.5301 54.514 51.7341 54.586 51.8901 54.73C52.0461 54.874 52.1241 55.066 52.1241 55.306C52.1241 55.522 52.0461 55.702 51.8901 55.846C51.7341 55.99 51.5301 56.062 51.2781 56.062H47.1201Z" fill="black"/>
<path d="M17.2775 20.3182C18.0998 17.25 21.2537 14.0961 24.322 13.2738L43.4509 8.14743C46.5192 7.32516 48.3399 9.14591 47.5177 12.2142L42.3913 31.3432C41.569 34.4114 38.4151 37.5653 35.3469 38.3876L16.2179 43.514C13.1496 44.3362 11.3289 42.5155 12.1511 39.4472L17.2775 20.3182Z" fill="#B8B8FF"/>
<path d="M9.60882 12.6493C10.4311 9.58107 13.585 6.42717 16.6533 5.60491L35.7822 0.47854C38.8505 -0.343725 40.6713 1.47702 39.849 4.54529L34.7226 23.6743C33.9004 26.7425 30.7465 29.8964 27.6782 30.7187L8.5492 35.8451C5.48093 36.6673 3.66018 34.8466 4.48245 31.7783L9.60882 12.6493Z" fill="#5051F9"/>
</svg>
